<svg xmlns="http://www.w3.org/2000/svg" xmlns:xlink="http://www.w3.org/1999/xlink" width="500" zoomAndPan="magnify" viewBox="0 0 375 374.999991" height="500" preserveAspectRatio="xMidYMid meet" version="1.0"><defs><clip-path id="6488bc3dfd"><path d="M 98 12.03125 L 374 12.03125 L 374 355 L 98 355 Z M 98 12.03125 " clip-rule="nonzero"/></clip-path><clip-path id="e491d5e010"><path d="M 21 12.03125 L 318 12.03125 L 318 170 L 21 170 Z M 21 12.03125 " clip-rule="nonzero"/></clip-path></defs><path fill="#ff3131" d="M 264.09375 163.953125 C 282.332031 163.953125 297.128906 149.152344 297.128906 130.917969 C 297.128906 112.660156 282.332031 97.859375 264.09375 97.859375 C 245.839844 97.859375 231.058594 112.660156 231.058594 130.917969 C 231.058594 149.152344 245.839844 163.953125 264.09375 163.953125 Z M 264.09375 163.953125 " fill-opacity="1" fill-rule="nonzero"/><g clip-path="url(#6488bc3dfd)"><path fill="#ff3131" d="M 266.386719 13.074219 C 260.636719 12.863281 254.832031 13.054688 249.066406 13.683594 C 328.730469 31.636719 327.398438 112.832031 316.320312 143.480469 C 316.265625 143.652344 316.1875 143.84375 316.132812 144.015625 C 311.300781 157.195312 303.355469 171.4375 290.960938 178.90625 C 274.273438 188.929688 252.40625 183.277344 237.53125 172.585938 C 198.976562 144.875 186.542969 85.753906 132.023438 79.832031 C 112.585938 77.734375 98.183594 86.421875 98.183594 86.421875 C 98.183594 86.421875 150.316406 105.710938 188.1875 187.152344 C 216.257812 247.554688 210.375 315.863281 203.273438 354.875 C 241.082031 334.730469 279.277344 312.808594 309.199219 282.023438 C 340.136719 250.210938 363.605469 209.417969 371.070312 165.363281 C 382.929688 95.457031 344.050781 15.917969 266.386719 13.074219 Z M 266.386719 13.074219 " fill-opacity="1" fill-rule="nonzero"/></g><path fill="#058789" d="M 130.609375 279.464844 C 118.503906 273.546875 108.6875 266.710938 94.730469 253.648438 C 112.011719 285.308594 147.816406 309.046875 188.1875 321.535156 C 188.1875 309.410156 185.417969 303.492188 174.207031 297.09375 C 160.59375 289.300781 144.667969 286.359375 130.609375 279.464844 Z M 130.609375 279.464844 " fill-opacity="1" fill-rule="nonzero"/><path fill="#058789" d="M 102.617188 244.101562 C 119.785156 265.394531 146.460938 275.859375 175.964844 283.4375 C 175.964844 267.074219 158.910156 261.476562 148.410156 260.21875 C 125.207031 257.429688 102.617188 244.101562 102.617188 244.101562 Z M 102.617188 244.101562 " fill-opacity="1" fill-rule="nonzero"/><path fill="#058789" d="M 128.910156 302.953125 C 106.703125 287.5625 92.285156 273.507812 85.277344 247.421875 C 83.003906 238.980469 82.277344 228.746094 88.617188 222.710938 C 93.984375 217.59375 102.484375 217.632812 109.699219 219.371094 C 116.917969 221.109375 123.925781 224.238281 131.355469 224.296875 C 138.785156 224.335938 149.804688 221.050781 150.679688 213.660156 C 133.628906 194.984375 110.386719 182.058594 85.523438 177.417969 C 79.414062 176.269531 73.476562 175.183594 67.785156 173.597656 C 58.886719 171.152344 50.636719 167.503906 43.359375 160.59375 C 33.355469 151.101562 27.050781 138.441406 23.136719 125.378906 C 18.132812 108.707031 16.757812 90.71875 18.878906 73.285156 C 4.863281 100.726562 -0.0078125 134.011719 5.300781 165.367188 C 12.769531 209.421875 36.238281 250.210938 67.171875 282.027344 C 101.089844 316.914062 145.640625 340.421875 188.1875 362.878906 C 194.546875 328.027344 165.136719 328.027344 128.910156 302.953125 Z M 128.910156 302.953125 " fill-opacity="1" fill-rule="nonzero"/><g clip-path="url(#e491d5e010)"><path fill="#058789" d="M 306.15625 58.570312 C 294.5 37.292969 275.011719 23.445312 248.226562 17.410156 L 238.828125 15.292969 C 219.355469 19.242188 201.105469 28.417969 188.183594 43.992188 C 169.242188 21.171875 138.859375 12.023438 109.988281 13.074219 C 70.949219 14.5 41.722656 35.300781 23.792969 64.515625 L 22.671875 73.746094 C 20.585938 90.875 22.011719 108.347656 26.796875 124.28125 C 31.054688 138.5 37.515625 149.78125 45.992188 157.824219 C 51.421875 162.984375 57.765625 166.527344 66.261719 169.15625 C 63.964844 162.289062 62.050781 155.304688 60.796875 148.160156 C 57.128906 127.632812 58.980469 105.421875 69.960938 87.683594 C 82.085938 68.070312 105.25 55.832031 128.300781 56.859375 C 151.332031 57.890625 177.855469 71.792969 188.1875 92.398438 C 198.515625 71.792969 225.042969 57.894531 248.074219 56.859375 C 271.121094 55.832031 294.285156 68.070312 306.410156 87.683594 C 312.9375 98.21875 316.226562 110.335938 317.066406 122.734375 C 319.316406 104.078125 317.675781 79.597656 306.15625 58.570312 Z M 306.15625 58.570312 " fill-opacity="1" fill-rule="nonzero"/></g></svg>